<?xml version="1.0" encoding="UTF-8" standalone="no"?>
<!-- Created with Inkscape (http://www.inkscape.org/) -->

<svg
   xmlns:dc="http://purl.org/dc/elements/1.1/"
   xmlns:cc="http://creativecommons.org/ns#"
   xmlns:rdf="http://www.w3.org/1999/02/22-rdf-syntax-ns#"
   xmlns:svg="http://www.w3.org/2000/svg"
   xmlns="http://www.w3.org/2000/svg"
   xmlns:sodipodi="http://sodipodi.sourceforge.net/DTD/sodipodi-0.dtd"
   xmlns:inkscape="http://www.inkscape.org/namespaces/inkscape"
   width="4740.5312"
   height="1853.6875"
   id="svg2"
   version="1.1"
   inkscape:version="0.48.2 r9819"
   sodipodi:docname="Physical_computing.svg">
  <defs
     id="defs4">
    <marker
       inkscape:stockid="Arrow2Send"
       orient="auto"
       refY="0"
       refX="0"
       id="Arrow2Send"
       style="overflow:visible">
      <path
         id="path4000"
         style="font-size:12px;fill-rule:evenodd;stroke-width:0.625;stroke-linejoin:round"
         d="M 8.7185878,4.0337352 -2.2072895,0.01601326 8.7185884,-4.0017078 c -1.7454984,2.3720609 -1.7354408,5.6174519 -6e-7,8.035443 z"
         transform="matrix(-0.3,0,0,-0.3,0.69,0)"
         inkscape:connector-curvature="0" />
    </marker>
    <marker
       inkscape:stockid="Arrow1Send"
       orient="auto"
       refY="0"
       refX="0"
       id="Arrow1Send"
       style="overflow:visible">
      <path
         id="path3982"
         d="M 0,0 5,-5 -12.5,0 5,5 0,0 z"
         style="fill-rule:evenodd;stroke:#000000;stroke-width:1pt;marker-start:none"
         transform="matrix(-0.2,0,0,-0.2,-1.2,0)"
         inkscape:connector-curvature="0" />
    </marker>
    <marker
       inkscape:stockid="Arrow1Lend"
       orient="auto"
       refY="0"
       refX="0"
       id="Arrow1Lend"
       style="overflow:visible">
      <path
         id="path3970"
         d="M 0,0 5,-5 -12.5,0 5,5 0,0 z"
         style="fill-rule:evenodd;stroke:#000000;stroke-width:1pt;marker-start:none"
         transform="matrix(-0.8,0,0,-0.8,-10,0)"
         inkscape:connector-curvature="0" />
    </marker>
    <inkscape:path-effect
       effect="skeletal"
       id="path-effect3014"
       is_visible="true"
       pattern="m 225.71429,165.71429 1,0"
       copytype="single_stretched"
       prop_scale="1"
       scale_y_rel="false"
       spacing="0"
       normal_offset="0"
       tang_offset="0"
       prop_units="false"
       vertical_pattern="false"
       fuse_tolerance="0" />
  </defs>
  <sodipodi:namedview
     id="base"
     pagecolor="#ffffff"
     bordercolor="#666666"
     borderopacity="1.0"
     inkscape:pageopacity="0.0"
     inkscape:pageshadow="2"
     inkscape:zoom="0.16488737"
     inkscape:cx="2317.6987"
     inkscape:cy="966.94223"
     inkscape:document-units="px"
     inkscape:current-layer="layer1"
     showgrid="false"
     inkscape:window-width="1440"
     inkscape:window-height="838"
     inkscape:window-x="-8"
     inkscape:window-y="-8"
     inkscape:window-maximized="1"
     fit-margin-top="0"
     fit-margin-left="0"
     fit-margin-right="0"
     fit-margin-bottom="0" />
  <metadata
     id="metadata7">
    <rdf:RDF>
      <cc:Work
         rdf:about="">
        <dc:format>image/svg+xml</dc:format>
        <dc:type
           rdf:resource="http://purl.org/dc/dcmitype/StillImage" />
        <dc:title></dc:title>
      </cc:Work>
    </rdf:RDF>
  </metadata>
  <g
     inkscape:label="Layer 1"
     inkscape:groupmode="layer"
     id="layer1"
     transform="translate(2412.7188,541.59375)">
    <rect
       style="fill:#ffffff;fill-opacity:1;fill-rule:nonzero;stroke:#ffd5d5;stroke-width:9.99999905;stroke-linecap:round;stroke-miterlimit:4;stroke-opacity:1;stroke-dasharray:none"
       id="rect5250"
       width="4730.5015"
       height="1843.6827"
       x="-2407.7041"
       y="-536.6012"
       ry="231.13245" />
    <path
       style="fill:#ececec;fill-opacity:1;fill-rule:nonzero;stroke:#ffd5d5;stroke-width:10;stroke-linecap:round;stroke-miterlimit:4;stroke-opacity:1"
       d="m 1312.4461,-48.452829 c -89.9439,-4.247498 -168.8347,51.604873 -197.7356,132.163433 -21.4018,-9.2608 -44.8029,-14.91125 -69.4753,-16.07638 C 936.05457,62.478304 843.31774,146.50251 837.57892,255.51672 752.11181,277.18451 687.11338,352.59485 682.7385,445.2364 c -2.63178,55.72987 17.17722,107.30967 51.45024,146.02703 80.75459,120.49663 297.21246,213.69526 555.46276,225.89082 270.0944,12.75488 503.0055,-67.01344 586.0325,-188.25318 56.1141,-30.41756 95.4097,-88.58125 98.6402,-156.99052 4.6895,-99.30167 -68.3087,-184.29277 -165.4345,-196.08453 0.2689,-3.00038 0.5024,-6.0045 0.6459,-9.04211 5.5081,-116.63878 -84.5584,-215.666296 -201.1971,-221.174426 -43.8109,-2.06892 -85.1341,9.34793 -119.9517,30.59454 -28.4241,-70.02939 -95.4888,-120.857609 -175.9407,-124.656853 z"
       id="path2985"
       inkscape:connector-curvature="0" />
    <g
       style="font-size:48.66697311px;font-style:normal;font-variant:normal;font-weight:normal;font-stretch:normal;line-height:125%;letter-spacing:0px;word-spacing:0px;fill:#666666;fill-opacity:1;stroke:none;font-family:Coca Cola ii;-inkscape-font-specification:Coca Cola ii"
       id="text5167">
      <path
         d="m 883.03353,446.58502 0,-125.41251 53.29604,0 c 13.40235,1.2e-4 23.14049,1.1265 29.21444,3.37912 6.07377,2.25287 10.93571,6.25934 14.58584,12.01941 3.64991,5.7603 5.47492,12.34744 5.47503,19.76146 -1.1e-4,9.41029 -2.76614,17.18084 -8.2981,23.31167 -5.53217,6.13096 -13.80174,9.99484 -24.80875,11.59167 5.47495,3.19383 9.9947,6.70127 13.55927,10.52234 3.56437,3.82115 8.36928,10.60791 14.41474,20.36028 l 15.31298,24.46656 -30.28378,0 -18.30715,-27.28962 c -6.50167,-9.75237 -10.95013,-15.89752 -13.3454,-18.43547 -2.39538,-2.53786 -4.93329,-4.27732 -7.61372,-5.2184 -2.68053,-0.94096 -6.92939,-1.41148 -12.74656,-1.41153 l -5.13285,0 0,52.35502 z m 25.32203,-72.37311 18.73489,0 c 12.14766,7e-5 19.73286,-0.51321 22.75561,-1.53986 3.02259,-1.02649 5.3894,-2.79447 7.10044,-5.30394 1.71086,-2.50931 2.56633,-5.64604 2.56642,-9.41021 -9e-5,-4.22025 -1.12646,-7.62788 -3.37912,-10.22292 -2.25284,-2.59484 -5.43234,-4.23449 -9.53854,-4.91898 -2.05321,-0.28505 -8.21262,-0.42763 -18.47824,-0.42773 l -19.76146,0 z"
         style="font-size:175.20111084px;font-weight:bold;fill:#666666;font-family:Arial;-inkscape-font-specification:Arial Bold"
         id="path5392" />
      <path
         d="m 1061.9987,417.66999 23.9533,4.02073 c -3.0798,8.78289 -7.9417,15.46984 -14.5858,20.06087 -6.6443,4.59105 -14.9566,6.88657 -24.9371,6.88657 -15.7978,0 -27.4893,-5.16136 -35.0744,-15.48408 -5.9884,-8.26956 -8.9825,-18.70634 -8.9825,-31.31036 0,-15.05628 3.9351,-26.84756 11.8055,-35.37385 7.8704,-8.52614 17.8224,-12.78925 29.8561,-12.78934 13.5164,9e-5 24.1813,4.46281 31.9947,13.38817 7.8132,8.92552 11.5488,22.59883 11.2067,41.01998 l -60.2254,0 c 0.1711,7.12899 2.1102,12.67531 5.8173,16.63898 3.707,3.96371 8.3265,5.94556 13.8586,5.94554 3.7641,2e-5 6.9293,-1.02655 9.4958,-3.0797 2.5664,-2.05312 4.5054,-5.36095 5.8172,-9.92351 z m 1.3688,-24.29546 c -0.1712,-6.9578 -1.9677,-12.24747 -5.3895,-15.86905 -3.422,-3.62143 -7.5853,-5.43218 -12.4899,-5.43226 -5.247,8e-5 -9.5814,1.91063 -13.0032,5.73168 -3.422,3.82118 -5.1044,9.01105 -5.0473,15.56963 z"
         style="font-size:175.20111084px;font-weight:bold;fill:#666666;font-family:Arial;-inkscape-font-specification:Arial Bold"
         id="path5394" />
      <path
         d="m 1124.8761,383.45103 -21.8146,-3.93518 c 2.4523,-8.7828 6.6727,-15.28439 12.661,-19.50481 5.9883,-4.22025 14.8852,-6.33042 26.6908,-6.33051 10.7219,9e-5 18.7063,1.26904 23.9533,3.80686 5.2468,2.53799 8.9396,5.76027 11.0784,9.66685 2.1386,3.90675 3.2079,11.07846 3.208,21.51518 l -0.2567,28.05955 c 0,7.98445 0.3849,13.87296 1.1549,17.66554 0.7699,3.79262 2.2099,7.85611 4.3202,12.19051 l -23.7822,0 c -0.6274,-1.59688 -1.3973,-3.96369 -2.3098,-7.10043 -0.3993,-1.42579 -0.6844,-2.36681 -0.8555,-2.82307 -4.1063,3.99222 -8.4977,6.98638 -13.1743,8.98248 -4.6766,1.99611 -9.6669,2.99416 -14.9708,2.99416 -9.3532,0 -16.7245,-2.53791 -22.114,-7.61372 -5.3895,-5.0758 -8.0842,-11.49185 -8.0842,-19.24817 0,-5.13281 1.2262,-9.7096 3.6785,-13.73036 2.4524,-4.02069 5.8885,-7.10039 10.3085,-9.23912 4.4199,-2.13864 10.7932,-4.00642 19.1199,-5.60336 11.2351,-2.11011 19.0199,-4.0777 23.3544,-5.90277 l 0,-2.39533 c -10e-5,-4.61949 -1.1407,-7.91306 -3.4219,-9.88072 -2.2813,-1.96752 -6.5872,-2.95131 -12.9177,-2.95139 -4.2774,8e-5 -7.6137,0.84129 -10.009,2.52365 -2.3954,1.6825 -4.3344,4.63389 -5.8172,8.85416 z m 32.1658,19.50481 c -3.0798,1.02661 -7.956,2.25279 -14.6286,3.67854 -6.6727,1.42583 -11.0357,2.8231 -13.0888,4.19182 -3.1367,2.22427 -4.7051,5.04733 -4.7051,8.4692 0,3.36488 1.2547,6.27349 3.7641,8.72583 2.5094,2.45238 5.7031,3.67856 9.5813,3.67854 4.3344,2e-5 8.4692,-1.42577 12.4044,-4.27737 2.9086,-2.16718 4.8191,-4.81915 5.7317,-7.95591 0.6273,-2.05311 0.9409,-5.95977 0.941,-11.72 z"
         style="font-size:175.20111084px;font-weight:bold;fill:#666666;font-family:Arial;-inkscape-font-specification:Arial Bold"
         id="path5396" />
      <path
         d="m 1204.4352,446.58502 0,-125.41251 24.0388,0 0,125.41251 z"
         style="font-size:175.20111084px;font-weight:bold;fill:#666666;font-family:Arial;-inkscape-font-specification:Arial Bold"
         id="path5398" />
      <path
         d="m 1319.582,446.58502 -29.9416,-125.41251 25.9209,0 18.9059,86.14625 22.9268,-86.14625 30.1126,0 21.9857,87.60055 19.2482,-87.60055 25.4931,0 -30.4549,125.41251 -26.8618,0 -24.9799,-93.75997 -24.8943,93.75997 z"
         style="font-size:175.20111084px;font-weight:bold;fill:#666666;font-family:Arial;-inkscape-font-specification:Arial Bold"
         id="path5400" />
      <path
         d="m 1461.334,399.87613 c 0,-7.98437 1.9676,-15.71214 5.9028,-23.18335 3.9352,-7.47106 9.51,-13.17422 16.7245,-17.10948 7.2145,-3.93509 15.2702,-5.90268 24.1672,-5.90277 13.7445,9e-5 25.0083,4.46281 33.7912,13.38817 8.7828,8.92552 13.1742,20.20351 13.1743,33.834 -10e-5,13.74465 -4.4343,25.1367 -13.3026,34.17619 -8.8685,9.03952 -20.0324,13.55927 -33.4918,13.55927 -8.3267,0 -16.2683,-1.88204 -23.825,-5.64613 -7.5567,-3.76408 -13.3026,-9.28188 -17.2378,-16.55342 -3.9352,-7.27151 -5.9028,-16.12566 -5.9028,-26.56248 z m 24.6377,1.28321 c 0,9.01103 2.1386,15.91185 6.4161,20.70248 4.2773,4.79067 9.5527,7.186 15.8262,7.18598 6.2734,2e-5 11.5346,-2.39531 15.7835,-7.18598 4.2488,-4.79063 6.3732,-11.74848 6.3733,-20.87357 -10e-5,-8.89688 -2.1245,-15.74066 -6.3733,-20.53138 -4.2489,-4.79059 -9.5101,-7.18591 -15.7835,-7.18598 -6.2735,7e-5 -11.5489,2.39539 -15.8262,7.18598 -4.2775,4.79072 -6.4161,11.69153 -6.4161,20.70247 z"
         style="font-size:175.20111084px;font-weight:bold;fill:#666666;font-family:Arial;-inkscape-font-specification:Arial Bold"
         id="path5402" />
      <path
         d="m 1597.0123,446.58502 -24.0388,0 0,-90.85136 22.3278,0 0,12.91766 c 3.8211,-6.10229 7.2573,-10.12302 10.3085,-12.06218 3.0511,-1.93898 6.5158,-2.90852 10.394,-2.90861 5.475,9e-5 10.7504,1.51143 15.8263,4.53401 l -7.4426,20.95912 c -4.0493,-2.62339 -7.8134,-3.93511 -11.2923,-3.93518 -3.3649,7e-5 -6.2165,0.92683 -8.5547,2.78029 -2.3384,1.85359 -4.1776,5.20419 -5.5178,10.05182 -1.3403,4.84774 -2.0104,14.99936 -2.0104,30.45488 z"
         style="font-size:175.20111084px;font-weight:bold;fill:#666666;font-family:Arial;-inkscape-font-specification:Arial Bold"
         id="path5404" />
      <path
         d="m 1642.0957,446.58502 0,-125.41251 24.0389,0 0,125.41251 z"
         style="font-size:175.20111084px;font-weight:bold;fill:#666666;font-family:Arial;-inkscape-font-specification:Arial Bold"
         id="path5406" />
      <path
         d="m 1774.0099,446.58502 -22.3279,0 0,-13.3454 c -3.7071,5.18989 -8.0843,9.05378 -13.1315,11.59168 -5.0474,2.53791 -10.1375,3.80686 -15.2703,3.80686 -10.4368,0 -19.3765,-4.20608 -26.8191,-12.61824 -7.4426,-8.41215 -11.1639,-20.14639 -11.1639,-35.20277 0,-15.39847 3.6215,-27.1042 10.8645,-35.11721 7.243,-8.01285 16.3966,-12.01932 27.4607,-12.01941 10.1516,9e-5 18.9345,4.22042 26.3486,12.66101 l 0,-45.16903 24.0389,0 z m -64.1606,-47.39327 c 0,9.69541 1.3402,16.7103 4.0207,21.04467 3.8781,6.27349 9.2961,9.41023 16.254,9.41021 5.532,2e-5 10.2371,-2.35253 14.1154,-7.05766 3.878,-4.70508 5.8171,-11.73422 5.8172,-21.08744 -10e-5,-10.43673 -1.8821,-17.95063 -5.6461,-22.54174 -3.7642,-4.59097 -8.5834,-6.88649 -14.4576,-6.88657 -5.7032,8e-5 -10.4796,2.26708 -14.3292,6.80102 -3.8496,4.53408 -5.7744,11.30657 -5.7744,20.31751 z"
         style="font-size:175.20111084px;font-weight:bold;fill:#666666;font-family:Arial;-inkscape-font-specification:Arial Bold"
         id="path5408" />
    </g>
    <rect
       style="fill:#ececec;fill-opacity:1;fill-rule:nonzero;stroke:#ffd5d5;stroke-width:10;stroke-linecap:round;stroke-miterlimit:4;stroke-opacity:1;stroke-dasharray:none"
       id="rect3010"
       width="1322.1649"
       height="817.14288"
       x="-2059.4448"
       y="-23.666115"
       ry="271.42856" />
    <g
       style="font-size:48.66697311px;font-style:normal;font-variant:normal;font-weight:normal;font-stretch:normal;text-align:center;line-height:125%;letter-spacing:0px;word-spacing:0px;text-anchor:middle;fill:#666666;fill-opacity:1;stroke:none;font-family:Coca Cola ii;-inkscape-font-specification:Coca Cola ii"
       id="text5171">
      <path
         d="m -1831.2322,319.67545 0,-125.41252 25.3221,0 0,125.41252 z"
         style="font-size:175.20111084px;font-weight:bold;fill:#666666;font-family:Arial;-inkscape-font-specification:Arial Bold"
         id="path5357" />
      <path
         d="m -1699.4036,319.67545 -24.0388,0 0,-46.3667 c -1e-4,-9.80939 -0.5134,-16.15415 -1.5399,-19.03431 -1.0266,-2.88002 -2.6948,-5.11851 -5.0045,-6.71547 -2.3098,-1.59681 -5.0901,-2.39525 -8.3409,-2.39533 -4.1633,8e-5 -7.8989,1.14071 -11.2067,3.4219 -3.3079,2.28133 -5.5749,5.30401 -6.801,9.06803 -1.2262,3.76414 -1.8393,10.72199 -1.8393,20.87357 l 0,41.14831 -24.0388,0 0,-90.85136 22.3279,0 0,13.3454 c 7.9273,-10.26561 17.9078,-15.39845 29.9416,-15.39854 5.3038,9e-5 10.1515,0.95537 14.543,2.86584 4.3914,1.91065 7.7135,4.34874 9.9663,7.3143 2.2527,2.96573 3.821,6.33059 4.7051,10.0946 0.8839,3.76415 1.3259,9.15364 1.326,16.16846 z"
         style="font-size:175.20111084px;font-weight:bold;fill:#666666;font-family:Arial;-inkscape-font-specification:Arial Bold"
         id="path5359" />
      <path
         d="m -1633.2754,228.82409 0,19.16262 -16.4251,0 0,36.61429 c -10e-5,7.41414 0.1568,11.73428 0.4705,12.96044 0.3136,1.2262 1.0265,2.23851 2.1386,3.03693 1.1121,0.79846 2.4666,1.19768 4.0636,1.19767 2.2241,10e-6 5.4464,-0.76991 9.6668,-2.30978 l 2.0531,18.64933 c -5.5891,2.39533 -11.9196,3.59299 -18.9915,3.59299 -4.3344,0 -8.2411,-0.72715 -11.72,-2.18146 -3.4789,-1.4543 -6.0311,-3.33634 -7.6565,-5.64613 -1.6254,-2.30977 -2.7518,-5.43224 -3.3791,-9.36744 -0.5133,-2.79453 -0.7699,-8.44065 -0.7699,-16.93839 l 0,-39.60845 -11.0356,0 0,-19.16262 11.0356,0 0,-18.05051 24.1244,-14.02977 0,32.08028 z"
         style="font-size:175.20111084px;font-weight:bold;fill:#666666;font-family:Arial;-inkscape-font-specification:Arial Bold"
         id="path5361" />
      <path
         d="m -1563.8109,290.76042 23.9532,4.02073 c -3.0798,8.78288 -7.9417,15.46983 -14.5858,20.06087 -6.6442,4.59104 -14.9566,6.88656 -24.9371,6.88656 -15.7978,0 -27.4892,-5.16135 -35.0744,-15.48408 -5.9883,-8.26956 -8.9825,-18.70634 -8.9825,-31.31035 0,-15.05629 3.9352,-26.84756 11.8056,-35.37386 7.8703,-8.52614 17.8223,-12.78925 29.856,-12.78934 13.5164,9e-5 24.1813,4.46281 31.9947,13.38817 7.8133,8.92552 11.5488,22.59883 11.2067,41.01999 l -60.2253,0 c 0.171,7.12898 2.1101,12.6753 5.8172,16.63897 3.707,3.96372 8.3266,5.94556 13.8587,5.94555 3.764,1e-5 6.9293,-1.02656 9.4957,-3.07971 2.5664,-2.05312 4.5055,-5.36095 5.8173,-9.9235 z m 1.3687,-24.29547 c -0.1711,-6.95779 -1.9676,-12.24747 -5.3895,-15.86904 -3.4219,-3.62144 -7.5852,-5.43219 -12.4899,-5.43227 -5.2469,8e-5 -9.5813,1.91064 -13.0032,5.73168 -3.4219,3.82118 -5.1044,9.01106 -5.0473,15.56963 z"
         style="font-size:175.20111084px;font-weight:bold;fill:#666666;font-family:Arial;-inkscape-font-specification:Arial Bold"
         id="path5363" />
      <path
         d="m -1495.8863,319.67545 -24.0388,0 0,-90.85136 22.3279,0 0,12.91766 c 3.821,-6.1023 7.2572,-10.12302 10.3084,-12.06219 3.0512,-1.93898 6.5158,-2.90852 10.394,-2.90861 5.475,9e-5 10.7504,1.51143 15.8263,4.53401 l -7.4426,20.95912 c -4.0493,-2.62338 -7.8134,-3.93511 -11.2923,-3.93518 -3.3649,7e-5 -6.2165,0.92683 -8.5547,2.78029 -2.3383,1.85359 -4.1776,5.2042 -5.5178,10.05182 -1.3403,4.84774 -2.0104,14.99936 -2.0104,30.45488 z"
         style="font-size:175.20111084px;font-weight:bold;fill:#666666;font-family:Arial;-inkscape-font-specification:Arial Bold"
         id="path5365" />
      <path
         d="m -1432.8378,256.54145 -21.8146,-3.93518 c 2.4523,-8.78279 6.6726,-15.28439 12.661,-19.50481 5.9883,-4.22025 14.8852,-6.33042 26.6908,-6.33051 10.7219,9e-5 18.7063,1.26905 23.9533,3.80686 5.2468,2.53799 8.9396,5.76028 11.0783,9.66686 2.1386,3.90674 3.208,11.07846 3.2081,21.51517 l -0.2567,28.05956 c -10e-5,7.98444 0.3849,13.87295 1.1549,17.66554 0.7699,3.79261 2.2099,7.85611 4.3202,12.19051 l -23.7822,0 c -0.6274,-1.59689 -1.3974,-3.9637 -2.3098,-7.10044 -0.3993,-1.42578 -0.6844,-2.3668 -0.8555,-2.82306 -4.1063,3.99221 -8.4977,6.98637 -13.1743,8.98247 -4.6766,1.99611 -9.6669,2.99416 -14.9708,2.99416 -9.3532,0 -16.7245,-2.5379 -22.114,-7.61372 -5.3895,-5.0758 -8.0842,-11.49185 -8.0842,-19.24817 0,-5.13281 1.2262,-9.70959 3.6785,-13.73036 2.4524,-4.02068 5.8885,-7.10039 10.3085,-9.23912 4.4199,-2.13863 10.7932,-4.00642 19.1198,-5.60335 11.2352,-2.11012 19.02,-4.07771 23.3545,-5.90277 l 0,-2.39533 c -10e-5,-4.6195 -1.1407,-7.91307 -3.4219,-9.88073 -2.2813,-1.96752 -6.5872,-2.95131 -12.9177,-2.95139 -4.2774,8e-5 -7.6137,0.84129 -10.009,2.52365 -2.3954,1.68251 -4.3345,4.63389 -5.8172,8.85416 z m 32.1658,19.50481 c -3.0798,1.02661 -7.956,2.25279 -14.6286,3.67854 -6.6728,1.42583 -11.0357,2.8231 -13.0888,4.19183 -3.1368,2.22426 -4.7051,5.04732 -4.7051,8.46919 0,3.36489 1.2547,6.2735 3.7641,8.72584 2.5094,2.45237 5.7031,3.67855 9.5813,3.67853 4.3344,2e-5 8.4692,-1.42577 12.4044,-4.27737 2.9085,-2.16718 4.8191,-4.81914 5.7317,-7.95591 0.6272,-2.0531 0.9409,-5.95977 0.941,-11.71999 z"
         style="font-size:175.20111084px;font-weight:bold;fill:#666666;font-family:Arial;-inkscape-font-specification:Arial Bold"
         id="path5367" />
      <path
         d="m -1274.0618,255.68598 -23.6967,4.27737 c -0.7985,-4.73356 -2.6092,-8.29803 -5.4322,-10.69343 -2.8232,-2.39525 -6.4874,-3.59292 -10.9929,-3.59299 -5.9884,7e-5 -10.7647,2.06747 -14.3292,6.20219 -3.5645,4.13485 -5.3467,11.04993 -5.3467,20.74525 0,10.77901 1.8107,18.39272 5.4323,22.84116 3.6214,4.44848 8.4834,6.67271 14.5858,6.67269 4.5625,2e-5 8.298,-1.29745 11.2067,-3.8924 2.9086,-2.59492 4.9617,-7.05764 6.1594,-13.38817 l 23.6111,4.02073 c -2.4524,10.83602 -7.1575,19.02005 -14.1153,24.5521 -6.9579,5.53207 -16.2826,8.2981 -27.974,8.2981 -13.2884,0 -23.882,-4.19182 -31.7809,-12.57547 -7.8989,-8.38362 -11.8483,-19.98955 -11.8483,-34.8178 0,-14.99925 3.9637,-26.67646 11.8911,-35.03166 7.9274,-8.35505 18.6493,-12.53261 32.1658,-12.5327 11.0641,9e-5 19.8612,2.38116 26.3914,7.14321 6.53,4.76222 11.2209,12.01949 14.0726,21.77182 z"
         style="font-size:175.20111084px;font-weight:bold;fill:#666666;font-family:Arial;-inkscape-font-specification:Arial Bold"
         id="path5369" />
      <path
         d="m -1214.0931,228.82409 0,19.16262 -16.4251,0 0,36.61429 c 0,7.41414 0.1568,11.73428 0.4705,12.96044 0.3137,1.2262 1.0266,2.23851 2.1387,3.03693 1.1121,0.79846 2.4666,1.19768 4.0635,1.19767 2.2242,10e-6 5.4465,-0.76991 9.6669,-2.30978 l 2.0531,18.64933 c -5.5891,2.39533 -11.9196,3.59299 -18.9915,3.59299 -4.3345,0 -8.2411,-0.72715 -11.72,-2.18146 -3.479,-1.4543 -6.0311,-3.33634 -7.6565,-5.64613 -1.6254,-2.30977 -2.7518,-5.43224 -3.3791,-9.36744 -0.5133,-2.79453 -0.77,-8.44065 -0.77,-16.93839 l 0,-39.60845 -11.0356,0 0,-19.16262 11.0356,0 0,-18.05051 24.1244,-14.02977 0,32.08028 z"
         style="font-size:175.20111084px;font-weight:bold;fill:#666666;font-family:Arial;-inkscape-font-specification:Arial Bold"
         id="path5371" />
      <path
         d="m -1197.2403,216.50526 0,-22.24233 24.0389,0 0,22.24233 z m 0,103.17019 0,-90.85136 24.0389,0 0,90.85136 z"
         style="font-size:175.20111084px;font-weight:bold;fill:#666666;font-family:Arial;-inkscape-font-specification:Arial Bold"
         id="path5373" />
      <path
         d="m -1123.6695,319.67545 -36.6143,-90.85136 25.2365,0 17.1095,46.3667 4.9617,15.48408 c 1.3117,-3.93515 2.1387,-6.53008 2.4809,-7.78481 0.7984,-2.56639 1.6539,-5.13281 2.5664,-7.69927 l 17.2806,-46.3667 24.7232,0 -36.101,90.85136 z"
         style="font-size:175.20111084px;font-weight:bold;fill:#666666;font-family:Arial;-inkscape-font-specification:Arial Bold"
         id="path5375" />
      <path
         d="m -998.51362,290.76042 23.95327,4.02073 c -3.07979,8.78288 -7.94173,15.46983 -14.58583,20.06087 -6.64425,4.59104 -14.95662,6.88656 -24.93712,6.88656 -15.7977,0 -27.4892,-5.16135 -35.0744,-15.48408 -5.9883,-8.26956 -8.9825,-18.70634 -8.9825,-31.31035 0,-15.05629 3.9352,-26.84756 11.8056,-35.37386 7.8703,-8.52614 17.8223,-12.78925 29.856,-12.78934 13.5165,9e-5 24.18135,4.46281 31.99475,13.38817 7.81325,8.92552 11.54882,22.59883 11.20672,41.01999 l -60.22537,0 c 0.171,7.12898 2.1101,12.6753 5.8172,16.63897 3.707,3.96372 8.3266,5.94556 13.8587,5.94555 3.764,1e-5 6.9293,-1.02656 9.4958,-3.07971 2.5663,-2.05312 4.50539,-5.36095 5.81718,-9.9235 z m 1.36876,-24.29547 c -0.17116,-6.95779 -1.96766,-12.24747 -5.38954,-15.86904 -3.4219,-3.62144 -7.5852,-5.43219 -12.4899,-5.43227 -5.2469,8e-5 -9.5813,1.91064 -13.0032,5.73168 -3.4219,3.82118 -5.1043,9.01106 -5.0473,15.56963 z"
         style="font-size:175.20111084px;font-weight:bold;fill:#666666;font-family:Arial;-inkscape-font-specification:Arial Bold"
         id="path5377" />
      <path
         d="m -1710.2681,497.87072 24.6376,-2.39533 c 1.4828,8.26962 4.4912,14.34348 9.0253,18.2216 4.534,3.87817 10.6506,5.81724 18.3499,5.81722 8.1555,2e-5 14.3006,-1.72518 18.4355,-5.17562 4.1347,-3.45038 6.2021,-7.48536 6.2022,-12.10496 -10e-5,-2.9656 -0.8699,-5.48925 -2.6092,-7.57094 -1.7396,-2.08161 -4.7765,-3.89236 -9.1108,-5.43226 -2.9657,-1.02652 -9.724,-2.85153 -20.2748,-5.47504 -13.5735,-3.3648 -23.0978,-7.49959 -28.5728,-12.40437 -7.6993,-6.90075 -11.5489,-15.31291 -11.5489,-25.23649 0,-6.38744 1.8107,-12.3615 5.4323,-17.92219 3.6214,-5.56046 8.8398,-9.79505 15.6551,-12.70379 6.8153,-2.90848 15.0421,-4.36279 24.6805,-4.36292 15.7406,1.3e-4 27.5889,3.45054 35.5449,10.35124 7.9558,6.90094 12.1334,16.11153 12.5327,27.63182 l -25.322,1.11211 c -1.0837,-6.44447 -3.4077,-11.07829 -6.9721,-13.90145 -3.5646,-2.82296 -8.9113,-4.23449 -16.0402,-4.2346 -7.3571,1.1e-4 -13.1173,1.51144 -17.2806,4.53402 -2.6805,1.93917 -4.0207,4.53411 -4.0207,7.78481 0,2.96574 1.2547,5.50364 3.7641,7.61372 3.1937,2.68057 10.95,5.47512 23.2689,8.38365 12.3187,2.90868 21.4295,5.9171 27.3324,9.02525 5.9027,3.10829 10.5222,7.35714 13.8587,12.74656 3.3362,5.38954 5.0044,12.04798 5.0045,19.97533 -10e-5,7.18601 -1.9962,13.91573 -5.9883,20.18919 -3.9923,6.27348 -9.6385,10.93581 -16.9384,13.987 -7.3001,3.05119 -16.3967,4.57678 -27.2896,4.57679 -15.8549,-10e-6 -28.0311,-3.66428 -36.5288,-10.99285 -8.4977,-7.32854 -13.5735,-18.0077 -15.2274,-32.0375 z"
         style="font-size:175.20111084px;font-weight:bold;fill:#666666;font-family:Arial;-inkscape-font-specification:Arial Bold"
         id="path5379" />
      <path
         d="m -1598.3721,447.82548 25.5787,0 21.729,64.50275 21.2158,-64.50275 24.8943,0 -32.0803,87.42946 -5.7317,15.82627 c -2.1102,5.30392 -4.1206,9.35316 -6.0311,12.14773 -1.9106,2.79452 -4.1063,5.06153 -6.5871,6.80102 -2.4809,1.73943 -5.5321,3.09393 -9.1536,4.0635 -3.6215,0.96951 -7.7135,1.45427 -12.2761,1.45431 -4.6195,-4e-5 -9.1535,-0.4848 -13.602,-1.45431 l -2.1387,-18.82043 c 3.7641,0.7414 7.1575,1.1121 10.1802,1.11212 5.589,-2e-5 9.7238,-1.63968 12.4043,-4.91898 2.6805,-3.27932 4.7336,-7.45689 6.1595,-12.53269 z"
         style="font-size:175.20111084px;font-weight:bold;fill:#666666;font-family:Arial;-inkscape-font-specification:Arial Bold"
         id="path5381" />
      <path
         d="m -1497.9394,512.75597 24.1243,-3.67854 c 1.0266,4.67661 3.1082,8.22683 6.245,10.65065 3.1367,2.42386 7.5281,3.63578 13.1743,3.63577 6.2164,1e-5 10.893,-1.14062 14.0298,-3.4219 2.1101,-1.59687 3.1652,-3.73555 3.1652,-6.41606 0,-1.82498 -0.5704,-3.33632 -1.7109,-4.53401 -1.1977,-1.1406 -3.8782,-2.19568 -8.0415,-3.16525 -19.3908,-4.27734 -31.6811,-8.184 -36.8709,-11.72 -7.186,-4.90467 -10.779,-11.71994 -10.779,-20.44583 0,-7.87029 3.1082,-14.48595 9.3247,-19.847 6.2164,-5.36089 15.8547,-8.04137 28.915,-8.04146 12.4328,9e-5 21.672,2.02471 27.7174,6.07387 6.0452,4.04932 10.2085,10.03764 12.4899,17.96495 l -22.6701,4.19183 c -0.9696,-3.5359 -2.8088,-6.24489 -5.5178,-8.12701 -2.709,-1.88197 -6.5729,-2.82299 -11.5917,-2.82306 -6.3305,7e-5 -10.8645,0.88406 -13.602,2.65197 -1.825,1.25476 -2.7375,2.88016 -2.7375,4.8762 0,1.71101 0.7984,3.16532 2.3953,4.36292 2.1672,1.59695 9.6526,3.84969 22.4562,6.75824 12.8035,2.90867 21.7432,6.47314 26.8191,10.69343 5.0187,4.27741 7.5281,10.23721 7.5282,17.87941 -10e-5,8.32664 -3.479,15.4841 -10.4368,21.4724 -6.9579,5.98832 -17.2521,8.98248 -30.8826,8.98248 -12.3759,0 -22.1711,-2.50939 -29.3855,-7.52817 -7.2146,-5.01877 -11.9339,-11.83404 -14.1581,-20.44583 z"
         style="font-size:175.20111084px;font-weight:bold;fill:#666666;font-family:Arial;-inkscape-font-specification:Arial Bold"
         id="path5383" />
      <path
         d="m -1350.2846,447.82548 0,19.16262 -16.4251,0 0,36.61429 c 0,7.41414 0.1568,11.73428 0.4705,12.96044 0.3136,1.2262 1.0265,2.23851 2.1387,3.03693 1.1121,0.79846 2.4666,1.19768 4.0635,1.19766 2.2242,2e-5 5.4465,-0.7699 9.6668,-2.30978 l 2.0532,18.64934 c -5.5892,2.39533 -11.9197,3.59299 -18.9915,3.59299 -4.3345,0 -8.2411,-0.72715 -11.72,-2.18146 -3.479,-1.4543 -6.0311,-3.33634 -7.6565,-5.64613 -1.6254,-2.30977 -2.7518,-5.43225 -3.3792,-9.36744 -0.5133,-2.79453 -0.7699,-8.44065 -0.7699,-16.93839 l 0,-39.60845 -11.0356,0 0,-19.16262 11.0356,0 0,-18.05051 24.1244,-14.02977 0,32.08028 z"
         style="font-size:175.20111084px;font-weight:bold;fill:#666666;font-family:Arial;-inkscape-font-specification:Arial Bold"
         id="path5385" />
      <path
         d="m -1280.8201,509.76181 23.9533,4.02073 c -3.0798,8.78288 -7.9417,15.46983 -14.5858,20.06087 -6.6443,4.59104 -14.9566,6.88656 -24.9371,6.88656 -15.7978,0 -27.4893,-5.16136 -35.0744,-15.48408 -5.9884,-8.26956 -8.9825,-18.70634 -8.9825,-31.31036 0,-15.05628 3.9352,-26.84755 11.8055,-35.37385 7.8704,-8.52614 17.8224,-12.78925 29.8561,-12.78934 13.5164,9e-5 24.1813,4.46281 31.9947,13.38817 7.8133,8.92552 11.5488,22.59883 11.2067,41.01999 l -60.2254,0 c 0.1711,7.12898 2.1102,12.6753 5.8173,16.63897 3.707,3.96371 8.3265,5.94556 13.8586,5.94554 3.7641,2e-5 6.9293,-1.02655 9.4958,-3.0797 2.5664,-2.05312 4.5054,-5.36095 5.8172,-9.9235 z m 1.3688,-24.29547 c -0.1712,-6.9578 -1.9677,-12.24747 -5.3895,-15.86905 -3.422,-3.62143 -7.5853,-5.43218 -12.4899,-5.43226 -5.247,8e-5 -9.5814,1.91064 -13.0032,5.73168 -3.422,3.82118 -5.1044,9.01105 -5.0473,15.56963 z"
         style="font-size:175.20111084px;font-weight:bold;fill:#666666;font-family:Arial;-inkscape-font-specification:Arial Bold"
         id="path5387" />
      <path
         d="m -1237.7042,447.82548 22.1568,0 0,12.40437 c 7.9274,-9.63825 17.3661,-14.45742 28.3162,-14.45751 5.8172,9e-5 10.8644,1.19775 15.1419,3.59299 4.2773,2.39541 7.7847,6.01692 10.5223,10.86452 3.9921,-4.8476 8.298,-8.46911 12.9177,-10.86452 4.6194,-2.39524 9.5527,-3.5929 14.7997,-3.59299 6.6726,9e-5 12.3187,1.35459 16.9384,4.0635 4.6194,2.70909 8.0698,6.68704 10.3512,11.93387 1.6538,3.87822 2.4807,10.15169 2.4809,18.82043 l 0,58.08669 -24.0388,0 0,-51.92728 c -2e-4,-9.01093 -0.8271,-14.82815 -2.4809,-17.45167 -2.2244,-3.42183 -5.6463,-5.13277 -10.2657,-5.13285 -3.365,8e-5 -6.5302,1.02665 -9.4958,3.07971 -2.9657,2.05321 -5.1044,5.06162 -6.416,9.02525 -1.3118,3.96376 -1.9677,10.22297 -1.9676,18.77766 l 0,43.62918 -24.0388,0 0,-49.78859 c -10e-5,-8.83984 -0.4278,-14.543 -1.2832,-17.10949 -0.8556,-2.56635 -2.1816,-4.47691 -3.978,-5.73167 -1.7966,-1.25462 -4.2347,-1.88197 -7.3143,-1.88205 -3.7071,8e-5 -7.0435,0.99813 -10.0091,2.99416 -2.9656,1.99618 -5.0901,4.87627 -6.3732,8.64029 -1.2833,3.76415 -1.9249,10.0091 -1.9249,18.73489 l 0,44.14246 -24.0388,0 z"
         style="font-size:175.20111084px;font-weight:bold;fill:#666666;font-family:Arial;-inkscape-font-specification:Arial Bold"
         id="path5389" />
    </g>
    <path
       inkscape:connector-curvature="0"
       style="font-size:medium;font-style:normal;font-variant:normal;font-weight:normal;font-stretch:normal;text-indent:0;text-align:start;text-decoration:none;line-height:normal;letter-spacing:normal;word-spacing:normal;text-transform:none;direction:ltr;block-progression:tb;writing-mode:lr-tb;text-anchor:start;baseline-shift:baseline;color:#000000;fill:#ececec;fill-opacity:1;fill-rule:evenodd;stroke:#ffd5d5;stroke-width:10;stroke-miterlimit:4;stroke-opacity:1;stroke-dasharray:none;marker:none;visibility:visible;display:inline;overflow:visible;enable-background:accumulate;font-family:Sans;-inkscape-font-specification:Sans"
       d="m 236.01049,497.51691 c 15.69907,21.87354 26.70738,46.01145 32.96875,70.99995 l -852.6875,0 0,100 852.75,0 c -6.24006,24.8018 -17.25407,48.622 -33.03125,70.0626 L 563.79174,618.04816 236.01049,497.51691 z"
       id="path3012" />
    <path
       id="path5161"
       d="m -255.92701,25.231197 c -15.69907,21.87354 -26.70738,46.01145 -32.96875,70.99995 l 852.6875,0 0,100.000003 -852.75,0 c 6.24006,24.8018 17.25407,48.622 33.03125,70.0626 L -583.70826,145.76245 -255.92701,25.231197 z"
       style="font-size:medium;font-style:normal;font-variant:normal;font-weight:normal;font-stretch:normal;text-indent:0;text-align:start;text-decoration:none;line-height:normal;letter-spacing:normal;word-spacing:normal;text-transform:none;direction:ltr;block-progression:tb;writing-mode:lr-tb;text-anchor:start;baseline-shift:baseline;color:#000000;fill:#ececec;fill-opacity:1;fill-rule:evenodd;stroke:#ffd5d5;stroke-width:10;stroke-miterlimit:4;stroke-opacity:1;stroke-dasharray:none;marker:none;visibility:visible;display:inline;overflow:visible;enable-background:accumulate;font-family:Sans;-inkscape-font-specification:Sans"
       inkscape:connector-curvature="0" />
    <g
       style="font-size:48.66697311px;font-style:normal;font-variant:normal;font-weight:normal;font-stretch:normal;line-height:125%;letter-spacing:0px;word-spacing:0px;fill:#666666;fill-opacity:1;stroke:none;font-family:Coca Cola ii;-inkscape-font-specification:Coca Cola ii"
       id="text5200">
      <path
         d="m -432.73589,443.58502 0,-125.41251 25.32204,0 0,125.41251 z"
         style="font-size:175.20111084px;font-weight:bold;fill:#666666;font-family:Arial;-inkscape-font-specification:Arial Bold"
         id="path5334" />
      <path
         d="m -300.90731,443.58502 -24.03883,0 0,-46.3667 c -7e-5,-9.80938 -0.51335,-16.15414 -1.53985,-19.0343 -1.02664,-2.88003 -2.69481,-5.11852 -5.00453,-6.71547 -2.30984,-1.59681 -5.09013,-2.39525 -8.34087,-2.39533 -4.16336,8e-5 -7.89893,1.14071 -11.20671,3.4219 -3.30788,2.28133 -5.57488,5.304 -6.80102,9.06802 -1.22622,3.76415 -1.83931,10.722 -1.83927,20.87357 l 0,41.14831 -24.03882,0 0,-90.85136 22.32787,0 0,13.3454 c 7.92735,-10.2656 17.90788,-15.39844 29.9416,-15.39853 5.30387,9e-5 10.15155,0.95537 14.54306,2.86584 4.39135,1.91064 7.71344,4.34874 9.96627,7.3143 2.25266,2.96572 3.82103,6.33058 4.70511,10.09459 0.8839,3.76416 1.32589,9.15364 1.32599,16.16847 z"
         style="font-size:175.20111084px;font-weight:bold;fill:#666666;font-family:Arial;-inkscape-font-specification:Arial Bold"
         id="path5336" />
      <path
         d="m -234.77916,352.73366 0,19.16263 -16.4251,0 0,36.61429 c -4e-5,7.41414 0.1568,11.73428 0.47051,12.96043 0.31363,1.22621 1.02653,2.23852 2.13868,3.03694 1.11208,0.79846 2.46658,1.19768 4.06351,1.19766 2.22418,2e-5 5.44647,-0.76991 9.66686,-2.30978 l 2.05313,18.64934 c -5.58915,2.39533 -11.91965,3.59299 -18.99152,3.59299 -4.33444,0 -8.2411,-0.72715 -11.72,-2.18146 -3.47895,-1.4543 -6.03111,-3.33634 -7.65649,-5.64613 -1.62542,-2.30977 -2.75179,-5.43225 -3.37913,-9.36744 -0.5133,-2.79453 -0.76994,-8.44066 -0.76992,-16.93839 l 0,-39.60845 -11.03562,0 0,-19.16263 11.03562,0 0,-18.0505 24.12437,-14.02978 0,32.08028 z"
         style="font-size:175.20111084px;font-weight:bold;fill:#666666;font-family:Arial;-inkscape-font-specification:Arial Bold"
         id="path5338" />
      <path
         d="m -165.31465,414.66999 23.95327,4.02073 c -3.07979,8.78289 -7.94173,15.46984 -14.58583,20.06087 -6.64425,4.59105 -14.9566,6.88657 -24.93707,6.88657 -15.79779,0 -27.48926,-5.16136 -35.07444,-15.48408 -5.98833,-8.26956 -8.98249,-18.70634 -8.98248,-31.31036 -1e-5,-15.05628 3.93517,-26.84756 11.80554,-35.37385 7.87034,-8.52614 17.82234,-12.78925 29.85605,-12.78934 13.51643,9e-5 24.18133,4.46281 31.99473,13.38817 7.81325,8.92552 11.54881,22.59883 11.20671,41.01998 l -60.22538,0 c 0.17107,7.12899 2.11014,12.67531 5.81723,16.63898 3.70701,3.96371 8.32657,5.94556 13.85868,5.94554 3.76403,2e-5 6.92928,-1.02655 9.49576,-3.0797 2.56636,-2.05312 4.50544,-5.36095 5.81723,-9.92351 z m 1.36876,-24.29546 c -0.17117,-6.9578 -1.96766,-12.24747 -5.38949,-15.86905 -3.42196,-3.62143 -7.58526,-5.43218 -12.48992,-5.43226 -5.24696,8e-5 -9.58135,1.91063 -13.00321,5.73168 -3.42193,3.82118 -5.10436,9.01105 -5.0473,15.56963 z"
         style="font-size:175.20111084px;font-weight:bold;fill:#666666;font-family:Arial;-inkscape-font-specification:Arial Bold"
         id="path5340" />
      <path
         d="m -97.389997,443.58502 -24.038823,0 0,-90.85136 22.327875,0 0,12.91766 c 3.82108,-6.10229 7.257232,-10.12302 10.308464,-12.06218 3.051144,-1.93898 6.515811,-2.90852 10.394011,-2.90861 5.474975,9e-5 10.750394,1.51143 15.826272,4.53401 l -7.442625,20.95912 c -4.049303,-2.62339 -7.813386,-3.93511 -11.292259,-3.93518 -3.364913,7e-5 -6.216491,0.92683 -8.554742,2.78029 -2.338337,1.85359 -4.177604,5.20419 -5.517808,10.05182 -1.340279,4.84774 -2.0104,14.99936 -2.010365,30.45488 z"
         style="font-size:175.20111084px;font-weight:bold;fill:#666666;font-family:Arial;-inkscape-font-specification:Arial Bold"
         id="path5342" />
      <path
         d="m -34.341561,380.45103 -21.814591,-3.93518 c 2.452348,-8.7828 6.672683,-15.28439 12.661018,-19.50481 5.988292,-4.22025 14.885214,-6.33042 26.690794,-6.33051 10.7218842,9e-5 18.7063019,1.26904 23.9532769,3.80686 5.2468311,2.53799 8.9396241,5.76027 11.0783901,9.66685 2.138601,3.90675 3.207942,11.07846 3.208029,21.51518 l -0.256643,28.05955 c -8.6e-5,7.98445 0.384877,13.87296 1.154891,17.66554 0.769838,3.79262 2.209885,7.85611 4.320144,12.19051 l -23.7821819,0 c -0.6274149,-1.59688 -1.3973409,-3.96369 -2.30978031,-7.10043 -0.39928633,-1.42579 -0.6844441,-2.36681 -0.85547418,-2.82307 -4.10633651,3.99222 -8.49776621,6.98638 -13.17430261,8.98248 -4.676639,1.99611 -9.6669,2.99416 -14.970798,2.99416 -9.353211,0 -16.72454,-2.53791 -22.114007,-7.61372 -5.389496,-5.0758 -8.084237,-11.49185 -8.084231,-19.24817 -6e-6,-5.13281 1.226172,-9.7096 3.678539,-13.73036 2.452347,-4.02069 5.888498,-7.10039 10.308464,-9.23912 4.419925,-2.13864 10.793201,-4.00642 19.119847,-5.60336 11.235177,-2.11011 19.0199846,-4.0777 23.3544454,-5.90277 l 0,-2.39533 c -6.27e-5,-4.61949 -1.1406938,-7.91306 -3.4218967,-9.88072 -2.2813214,-1.96752 -6.5872037,-2.95131 -12.9176597,-2.95139 -4.277413,8e-5 -7.613759,0.84129 -10.009048,2.52365 -2.395362,1.6825 -4.334435,4.63389 -5.817225,8.85416 z m 32.1658294,19.50481 c -3.0797666,1.02661 -7.9559644,2.25279 -14.6286084,3.67854 -6.67274,1.42583 -11.035654,2.8231 -13.088755,4.19182 -3.13677,2.22427 -4.705138,5.04733 -4.705108,8.4692 -3e-5,3.36488 1.254664,6.27349 3.764087,8.72583 2.509354,2.45238 5.703121,3.67856 9.58131,3.67854 4.334355,2e-5 8.469143,-1.42577 12.4043759,-4.27737 2.9085532,-2.16718 4.8191103,-4.81915 5.7316769,-7.95591 0.6272854,-2.05311 0.9409589,-5.95977 0.9410216,-11.72 z"
         style="font-size:175.20111084px;font-weight:bold;fill:#666666;font-family:Arial;-inkscape-font-specification:Arial Bold"
         id="path5344" />
      <path
         d="m 124.43444,379.59555 -23.69664,4.27737 c -0.798506,-4.73355 -2.609258,-8.29803 -5.432257,-10.69342 -2.823125,-2.39526 -6.487402,-3.59292 -10.992844,-3.59299 -5.988364,7e-5 -10.764757,2.06746 -14.329192,6.20218 -3.564509,4.13486 -5.346746,11.04994 -5.346714,20.74525 -3.2e-5,10.77901 1.81072,18.39273 5.432261,22.84116 3.621467,4.44849 8.483407,6.67272 14.585835,6.6727 4.562472,2e-5 8.298039,-1.29745 11.206712,-3.89241 2.908546,-2.59491 4.961679,-7.05763 6.159409,-13.38817 l 23.61109,4.02073 c -2.45245,10.83603 -7.15755,19.02006 -14.11532,24.55211 -6.95793,5.53207 -16.28259,8.2981 -27.974007,8.2981 -13.288403,0 -23.882015,-4.19182 -31.780866,-12.57547 -7.898889,-8.38363 -11.848324,-19.98955 -11.848317,-34.8178 -7e-6,-14.99925 3.963686,-26.67646 11.891091,-35.03167 7.927367,-8.35504 18.649299,-12.5326 32.165829,-12.53269 11.06407,9e-5 19.86119,2.38116 26.39138,7.14321 6.53003,4.76222 11.22088,12.01948 14.07255,21.77181 z"
         style="font-size:175.20111084px;font-weight:bold;fill:#666666;font-family:Arial;-inkscape-font-specification:Arial Bold"
         id="path5346" />
      <path
         d="m 184.4032,352.73366 0,19.16263 -16.4251,0 0,36.61429 c -4e-5,7.41414 0.1568,11.73428 0.47051,12.96043 0.31363,1.22621 1.02653,2.23852 2.13868,3.03694 1.11208,0.79846 2.46658,1.19768 4.0635,1.19766 2.22419,2e-5 5.44647,-0.76991 9.66686,-2.30978 l 2.05314,18.64934 c -5.58915,2.39533 -11.91965,3.59299 -18.99153,3.59299 -4.33443,0 -8.24109,-0.72715 -11.71999,-2.18146 -3.47895,-1.4543 -6.03111,-3.33634 -7.6565,-5.64613 -1.62541,-2.30977 -2.75179,-5.43225 -3.37912,-9.36744 -0.5133,-2.79453 -0.76994,-8.44066 -0.76993,-16.93839 l 0,-39.60845 -11.03561,0 0,-19.16263 11.03561,0 0,-18.0505 24.12438,-14.02978 0,32.08028 z"
         style="font-size:175.20111084px;font-weight:bold;fill:#666666;font-family:Arial;-inkscape-font-specification:Arial Bold"
         id="path5348" />
      <path
         d="m 201.25601,340.41484 0,-22.24233 24.03883,0 0,22.24233 z m 0,103.17018 0,-90.85136 24.03883,0 0,90.85136 z"
         style="font-size:175.20111084px;font-weight:bold;fill:#666666;font-family:Arial;-inkscape-font-specification:Arial Bold"
         id="path5350" />
      <path
         d="m 244.28637,396.87613 c 0,-7.98437 1.96758,-15.71214 5.90277,-23.18335 3.93517,-7.47106 9.51,-13.17422 16.72452,-17.10948 7.21447,-3.93509 15.27017,-5.90268 24.16715,-5.90277 13.74455,9e-5 25.00828,4.46281 33.79123,13.38817 8.78277,8.92552 13.1742,20.20351 13.1743,33.834 -10e-5,13.74465 -4.4343,25.1367 -13.30262,34.17619 -8.8685,9.03952 -20.03242,13.55927 -33.49182,13.55927 -8.32666,0 -16.2683,-1.88204 -23.82495,-5.64613 -7.55671,-3.76408 -13.30264,-9.28188 -17.23781,-16.55342 -3.93519,-7.27151 -5.90277,-16.12566 -5.90277,-26.56248 z m 24.63766,1.28321 c -3e-5,9.01103 2.13865,15.91185 6.41606,20.70248 4.27732,4.79067 9.55274,7.186 15.82627,7.18598 6.27341,2e-5 11.53458,-2.39531 15.7835,-7.18598 4.24878,-4.79063 6.3732,-11.74848 6.37328,-20.87357 -8e-5,-8.89688 -2.1245,-15.74066 -6.37328,-20.53138 -4.24892,-4.79059 -9.51009,-7.18591 -15.7835,-7.18598 -6.27353,7e-5 -11.54895,2.39539 -15.82627,7.18598 -4.27741,4.79072 -6.41609,11.69153 -6.41606,20.70247 z"
         style="font-size:175.20111084px;font-weight:bold;fill:#666666;font-family:Arial;-inkscape-font-specification:Arial Bold"
         id="path5352" />
      <path
         d="m 439.59111,443.58502 -24.03883,0 0,-46.3667 c -7e-5,-9.80938 -0.51335,-16.15414 -1.53985,-19.0343 -1.02664,-2.88003 -2.69481,-5.11852 -5.00453,-6.71547 -2.30984,-1.59681 -5.09013,-2.39525 -8.34087,-2.39533 -4.16336,8e-5 -7.89892,1.14071 -11.20671,3.4219 -3.30788,2.28133 -5.57488,5.304 -6.80102,9.06802 -1.22622,3.76415 -1.83931,10.722 -1.83927,20.87357 l 0,41.14831 -24.03882,0 0,-90.85136 22.32787,0 0,13.3454 c 7.92735,-10.2656 17.90788,-15.39844 29.9416,-15.39853 5.30387,9e-5 10.15155,0.95537 14.54306,2.86584 4.39135,1.91064 7.71344,4.34874 9.96627,7.3143 2.25266,2.96572 3.82103,6.33058 4.70511,10.09459 0.8839,3.76416 1.32589,9.15364 1.32599,16.16847 z"
         style="font-size:175.20111084px;font-weight:bold;fill:#666666;font-family:Arial;-inkscape-font-specification:Arial Bold"
         id="path5354" />
    </g>
    <g
       style="font-size:48.66697311px;font-style:normal;font-variant:normal;font-weight:normal;font-stretch:normal;line-height:125%;letter-spacing:0px;word-spacing:0px;fill:#666666;fill-opacity:1;stroke:none;font-family:Coca Cola ii;-inkscape-font-specification:Coca Cola ii"
       id="text5242">
      <path
         d="m -335.08352,-95.482517 24.63765,-2.395328 c 1.48279,8.269619 4.49121,14.343479 9.02526,18.2216 4.53396,3.878171 10.6506,5.817243 18.34992,5.817224 8.15545,1.9e-5 14.3006,-1.725185 18.43547,-5.175618 4.13471,-3.450385 6.2021,-7.485368 6.20218,-12.10496 -8e-5,-2.965604 -0.86981,-5.489251 -2.60919,-7.570946 -1.73955,-2.081605 -4.77648,-3.892365 -9.1108,-5.432265 -2.96572,-1.02652 -9.72395,-2.85152 -20.27474,-5.47503 -13.57356,-3.36481 -23.09783,-7.4996 -28.57284,-12.40438 -7.69928,-6.90075 -11.54891,-15.3129 -11.5489,-25.23648 -10e-6,-6.38745 1.81074,-12.3615 5.43226,-17.92219 3.62149,-5.56046 8.83988,-9.79506 15.65518,-12.70379 6.81524,-2.90849 15.04204,-4.36279 24.68043,-4.36292 15.74065,1.3e-4 27.58896,3.45054 35.54495,10.35124 7.95581,6.90093 12.13337,16.11153 12.5327,27.63181 l -25.32204,1.11212 c -1.08368,-6.44448 -3.40771,-11.07829 -6.97211,-13.90145 -3.56455,-2.82296 -8.91126,-4.23449 -16.04014,-4.2346 -7.35713,1.1e-4 -13.11732,1.51144 -17.28058,4.53401 -2.68052,1.93918 -4.02077,4.53411 -4.02073,7.78482 -4e-5,2.96573 1.25466,5.50364 3.76409,7.61372 3.19372,2.68057 10.95002,5.47511 23.26889,8.38364 12.31876,2.90869 21.42955,5.91711 27.3324,9.02526 5.90268,3.10829 10.52224,7.35714 13.85868,12.74656 3.33625,5.38954 5.00442,12.047974 5.00453,19.975324 -1.1e-4,7.186012 -1.99621,13.915735 -5.98832,20.18919 -3.99231,6.273487 -9.63844,10.935817 -16.93839,13.987003 -7.30012,3.05119 -16.39666,4.576784 -27.28963,4.576787 -15.85483,-3e-6 -28.03106,-3.66428 -36.52874,-10.992844 -8.49773,-7.328546 -13.57353,-18.007704 -15.22744,-32.037507 z"
         style="font-size:175.20111084px;font-weight:bold;fill:#666666;font-family:Arial;-inkscape-font-specification:Arial Bold"
         id="path5319" />
      <path
         d="m -159.19803,-83.591426 23.95328,4.020728 c -3.0798,8.782885 -7.94174,15.469834 -14.58584,20.06087 -6.64425,4.591045 -14.9566,6.886565 -24.93707,6.886567 -15.79779,-2e-6 -27.48926,-5.161358 -35.07444,-15.484083 -5.98833,-8.269562 -8.98249,-18.706336 -8.98248,-31.310355 -1e-5,-15.056281 3.93517,-26.847561 11.80554,-35.373861 7.87034,-8.52613 17.82235,-12.78924 29.85605,-12.78933 13.51643,9e-5 24.18133,4.46281 31.99474,13.38817 7.81324,8.92551 11.54881,22.59883 11.20671,41.019983 l -60.22538,0 c 0.17106,7.128983 2.11013,12.675301 5.81722,16.638973 3.70702,3.963715 8.32657,5.945561 13.85868,5.945545 3.76403,1.6e-5 6.92929,-1.026552 9.49577,-3.079707 2.56636,-2.053117 4.50543,-5.360947 5.81722,-9.9235 z m 1.36876,-24.295464 c -0.17116,-6.9578 -1.96766,-12.24748 -5.38949,-15.86905 -3.42195,-3.62143 -7.58526,-5.43219 -12.48992,-5.43226 -5.24695,7e-5 -9.58135,1.91063 -13.00321,5.73168 -3.42193,3.82118 -5.10436,9.01105 -5.0473,15.56963 z"
         style="font-size:175.20111084px;font-weight:bold;fill:#666666;font-family:Arial;-inkscape-font-specification:Arial Bold"
         id="path5321" />
      <path
         d="m -31.646839,-54.676399 -24.038824,0 0,-46.366701 c -7.1e-5,-9.80938 -0.513355,-16.15414 -1.539854,-19.0343 -1.026637,-2.88003 -2.69481,-5.11852 -5.004524,-6.71547 -2.309842,-1.59681 -5.090131,-2.39526 -8.340873,-2.39533 -4.16336,7e-5 -7.898926,1.14071 -11.206712,3.4219 -3.307875,2.28133 -5.574879,5.304 -6.801019,9.06802 -1.226217,3.76415 -1.839306,10.722 -1.83927,20.873573 l 0,41.148308 -24.038825,0 0,-90.851361 22.327877,0 0,13.3454 c 7.927351,-10.2656 17.907873,-15.39844 29.941596,-15.39853 5.30387,9e-5 10.151552,0.95537 14.543061,2.86583 4.39135,1.91065 7.713439,4.34875 9.966274,7.31431 2.252657,2.96572 3.821025,6.33058 4.705108,10.09459 0.883895,3.76416 1.32589,9.15364 1.325985,16.16847 z"
         style="font-size:175.20111084px;font-weight:bold;fill:#666666;font-family:Arial;-inkscape-font-specification:Arial Bold"
         id="path5323" />
      <path
         d="m -15.649461,-80.597267 24.1243714,-3.678539 c 1.0265398,4.676617 3.1081916,8.226832 6.2449616,10.650654 3.136701,2.42386 7.528131,3.63578 13.174302,3.635765 6.216392,1.5e-5 10.892979,-1.140616 14.029777,-3.421897 2.110105,-1.596864 3.165189,-3.735548 3.165254,-6.416056 -6.5e-5,-1.824985 -0.57038,-3.336321 -1.710948,-4.534013 -1.197726,-1.140601 -3.878209,-2.195685 -8.041457,-3.165255 -19.390784,-4.277333 -31.6810842,-8.183995 -36.8709374,-11.719996 -7.1859941,-4.904666 -10.7789816,-11.719936 -10.7789746,-20.445836 -7e-6,-7.87029 3.1082123,-14.48595 9.3246685,-19.847 6.2164227,-5.36088 15.8547555,-8.04136 28.9150275,-8.04145 12.432833,9e-5 21.671945,2.02471 27.717363,6.07386 6.045271,4.04933 10.208575,10.03764 12.489923,17.96496 l -22.670066,4.19182 c -0.969599,-3.53589 -2.808867,-6.24489 -5.517808,-8.127 -2.709057,-1.88197 -6.572945,-2.82299 -11.591675,-2.82307 -6.330549,8e-5 -10.864558,0.88407 -13.60204,2.65197 -1.825042,1.25477 -2.737547,2.88017 -2.737517,4.87621 -3e-5,1.71101 0.798412,3.16532 2.395328,4.36291 2.167167,1.59695 9.652558,3.8497 22.456197,6.75825 12.803529,2.90867 21.743225,6.47314 26.819115,10.69343 5.018695,4.277411 7.528084,10.237208 7.528173,17.879408 -8.9e-5,8.326636 -3.479014,15.484096 -10.436785,21.472402 -6.957928,5.98832 -17.252124,8.982477 -30.882618,8.982479 -12.375895,-2e-6 -22.1710643,-2.509391 -29.3855377,-7.528173 -7.2145099,-5.018771 -11.9338713,-11.834042 -14.1580973,-20.445833 z"
         style="font-size:175.20111084px;font-weight:bold;fill:#666666;font-family:Arial;-inkscape-font-specification:Arial Bold"
         id="path5325" />
      <path
         d="m 84.783199,-101.38529 c -7e-6,-7.98437 1.967581,-15.71215 5.902772,-23.18335 3.935164,-7.47106 9.509999,-13.17422 16.724519,-17.10948 7.21446,-3.93509 15.27017,-5.90268 24.16715,-5.90277 13.74455,9e-5 25.00828,4.46281 33.79123,13.38817 8.78277,8.92551 13.1742,20.2035 13.1743,33.834 -1e-4,13.74465 -4.43431,25.136703 -13.30263,34.176193 -8.86849,9.039513 -20.03242,13.559264 -33.49181,13.559266 -8.32666,-2e-6 -16.2683,-1.882044 -23.82495,-5.64613 -7.55672,-3.764079 -13.302645,-9.281882 -17.237809,-16.553425 -3.935191,-7.271503 -5.902779,-16.125652 -5.902772,-26.562474 z m 24.637651,1.28321 c -3e-5,9.011033 2.13866,15.911851 6.41606,20.702477 4.27733,4.790675 9.55275,7.186001 15.82627,7.185983 6.27342,1.8e-5 11.53458,-2.395308 15.7835,-7.185983 4.24878,-4.790626 6.37321,-11.748475 6.37328,-20.873567 -7e-5,-8.89688 -2.1245,-15.74067 -6.37328,-20.53138 -4.24892,-4.79059 -9.51008,-7.18591 -15.7835,-7.18599 -6.27352,8e-5 -11.54894,2.3954 -15.82627,7.18599 -4.2774,4.79071 -6.41609,11.69153 -6.41606,20.70247 z"
         style="font-size:175.20111084px;font-weight:bold;fill:#666666;font-family:Arial;-inkscape-font-specification:Arial Bold"
         id="path5327" />
      <path
         d="m 220.46141,-54.676399 -24.03882,0 0,-90.851361 22.32788,0 0,12.91766 c 3.82108,-6.10229 7.25723,-10.12302 10.30846,-12.06218 3.05114,-1.93899 6.51581,-2.90852 10.39401,-2.90861 5.47497,9e-5 10.75039,1.51142 15.82627,4.53401 l -7.44262,20.95912 c -4.04931,-2.62339 -7.81339,-3.93511 -11.29226,-3.93519 -3.36492,8e-5 -6.21649,0.92684 -8.55474,2.7803 -2.33834,1.85359 -4.17761,5.20419 -5.51781,10.05182 -1.34028,4.84774 -2.0104,14.999355 -2.01037,30.454878 z"
         style="font-size:175.20111084px;font-weight:bold;fill:#666666;font-family:Arial;-inkscape-font-specification:Arial Bold"
         id="path5329" />
      <path
         d="m 257.07573,-80.597267 24.12437,-3.678539 c 1.02654,4.676617 3.10819,8.226832 6.24496,10.650654 3.1367,2.42386 7.52813,3.63578 13.1743,3.635765 6.2164,1.5e-5 10.89298,-1.140616 14.02978,-3.421897 2.11011,-1.596864 3.16519,-3.735548 3.16525,-6.416056 -6e-5,-1.824985 -0.57038,-3.336321 -1.71094,-4.534013 -1.19773,-1.140601 -3.87821,-2.195685 -8.04146,-3.165255 -19.39078,-4.277333 -31.68108,-8.183995 -36.87094,-11.719996 -7.18599,-4.904666 -10.77898,-11.719936 -10.77897,-20.445836 -10e-6,-7.87029 3.10821,-14.48595 9.32467,-19.847 6.21642,-5.36088 15.85475,-8.04136 28.91502,-8.04145 12.43284,9e-5 21.67195,2.02471 27.71737,6.07386 6.04527,4.04933 10.20857,10.03764 12.48992,17.96496 l -22.67007,4.19182 c -0.9696,-3.53589 -2.80886,-6.24489 -5.51781,-8.127 -2.70905,-1.88197 -6.57294,-2.82299 -11.59167,-2.82307 -6.33055,8e-5 -10.86456,0.88407 -13.60204,2.65197 -1.82504,1.25477 -2.73755,2.88017 -2.73752,4.87621 -3e-5,1.71101 0.79842,3.16532 2.39533,4.36291 2.16717,1.59695 9.65256,3.8497 22.4562,6.75825 12.80353,2.90867 21.74322,6.47314 26.81911,10.69343 5.0187,4.277411 7.52809,10.237208 7.52818,17.879408 -9e-5,8.326636 -3.47902,15.484096 -10.43679,21.472402 -6.95793,5.98832 -17.25212,8.982477 -30.88262,8.982479 -12.37589,-2e-6 -22.17106,-2.509391 -29.38553,-7.528173 -7.21451,-5.018771 -11.93388,-11.834042 -14.1581,-20.445833 z"
         style="font-size:175.20111084px;font-weight:bold;fill:#666666;font-family:Arial;-inkscape-font-specification:Arial Bold"
         id="path5331" />
    </g>
    <g
       style="font-size:48.66697311px;font-style:normal;font-variant:normal;font-weight:normal;font-stretch:normal;line-height:125%;letter-spacing:0px;word-spacing:0px;fill:#666666;fill-opacity:1;stroke:none;font-family:Coca Cola ii;-inkscape-font-specification:Coca Cola ii"
       id="text5246">
      <path
         d="m -275.71361,950.65479 -27.54627,0 -10.95007,-28.48729 -50.13079,0 -10.35123,28.48729 -26.86189,0 48.84757,-125.41252 26.77634,0 z m -46.62335,-49.61751 -17.28057,-46.53779 -16.93839,46.53779 z"
         style="font-size:175.20111084px;font-weight:bold;fill:#666666;font-family:Arial;-inkscape-font-specification:Arial Bold"
         id="path5300" />
      <path
         d="m -183.15131,886.66532 -23.69663,4.27737 c -0.79851,-4.73356 -2.60926,-8.29803 -5.43226,-10.69343 -2.82313,-2.39525 -6.48741,-3.59292 -10.99285,-3.59299 -5.98836,7e-5 -10.76475,2.06747 -14.32919,6.20219 -3.56451,4.13485 -5.34675,11.04993 -5.34671,20.74525 -4e-5,10.77901 1.81072,18.39272 5.43226,22.84116 3.62146,4.44848 8.4834,6.67271 14.58583,6.67269 4.56247,2e-5 8.29804,-1.29745 11.20671,-3.8924 2.90855,-2.59492 4.96169,-7.05764 6.15942,-13.38817 l 23.61109,4.02072 c -2.45245,10.83603 -7.15756,19.02006 -14.11533,24.55211 -6.95793,5.53207 -16.28259,8.2981 -27.974,8.2981 -13.28841,0 -23.88202,-4.19182 -31.78087,-12.57547 -7.89889,-8.38363 -11.84832,-19.98955 -11.84832,-34.8178 0,-14.99925 3.96369,-26.67646 11.89109,-35.03166 7.92737,-8.35505 18.6493,-12.53261 32.16583,-12.5327 11.06407,9e-5 19.86119,2.38116 26.39138,7.14321 6.53004,4.76222 11.22088,12.01949 14.07255,21.77182 z"
         style="font-size:175.20111084px;font-weight:bold;fill:#666666;font-family:Arial;-inkscape-font-specification:Arial Bold"
         id="path5302" />
      <path
         d="m -123.18257,859.80343 0,19.16262 -16.4251,0 0,36.61429 c -4e-5,7.41414 0.1568,11.73428 0.47051,12.96044 0.31363,1.2262 1.02653,2.23851 2.13868,3.03693 1.11208,0.79846 2.46658,1.19768 4.06351,1.19766 2.22418,2e-5 5.44646,-0.7699 9.66685,-2.30978 l 2.05314,18.64934 c -5.58915,2.39533 -11.91965,3.59299 -18.99153,3.59299 -4.33443,0 -8.24109,-0.72715 -11.71999,-2.18146 -3.47895,-1.4543 -6.03111,-3.33634 -7.6565,-5.64613 -1.62541,-2.30977 -2.75179,-5.43225 -3.37912,-9.36744 -0.5133,-2.79453 -0.76994,-8.44065 -0.76993,-16.93839 l 0,-39.60845 -11.03561,0 0,-19.16262 11.03561,0 0,-18.05051 24.12438,-14.02977 0,32.08028 z"
         style="font-size:175.20111084px;font-weight:bold;fill:#666666;font-family:Arial;-inkscape-font-specification:Arial Bold"
         id="path5304" />
      <path
         d="m -46.532067,950.65479 0,-13.60204 c -3.307902,4.84769 -7.656558,8.66881 -13.045981,11.46335 -5.389541,2.79455 -11.078439,4.19182 -17.06671,4.19182 -6.102418,0 -11.577448,-1.34024 -16.425104,-4.02073 -4.847708,-2.68048 -8.355148,-6.44456 -10.522328,-11.29225 -2.16722,-4.84767 -3.25082,-11.54888 -3.25081,-20.10365 l 0,-57.48786 24.038828,0 0,41.74714 c -3.6e-5,12.77511 0.441959,20.6027 1.325985,23.48276 0.883952,2.88012 2.495093,5.16138 4.833429,6.8438 2.338252,1.68245 5.303893,2.52366 8.896932,2.52365 4.10622,10e-6 7.784756,-1.12636 11.035617,-3.37913 3.250736,-2.25272 5.474967,-5.04727 6.672698,-8.38364 1.197594,-3.33632 1.796425,-11.50609 1.796496,-24.50934 l 0,-38.32524 24.038824,0 0,90.85136 z"
         style="font-size:175.20111084px;font-weight:bold;fill:#666666;font-family:Arial;-inkscape-font-specification:Arial Bold"
         id="path5306" />
      <path
         d="m 18.740593,887.52079 -21.8145916,-3.93518 c 2.45234809,-8.78279 6.6726831,-15.28439 12.6610177,-19.50481 5.9882919,-4.22025 14.8852149,-6.33042 26.6907939,-6.33051 10.721885,9e-5 18.706302,1.26904 23.953277,3.80686 5.246831,2.53799 8.939624,5.76028 11.078391,9.66686 2.1386,3.90674 3.207942,11.07846 3.208028,21.51517 l -0.256642,28.05956 c -8.6e-5,7.98444 0.384877,13.87295 1.15489,17.66554 0.769839,3.79261 2.209885,7.85611 4.320144,12.19051 l -23.782182,0 c -0.627414,-1.59689 -1.39734,-3.9637 -2.30978,-7.10044 -0.399286,-1.42578 -0.684444,-2.3668 -0.855474,-2.82307 -4.106337,3.99222 -8.497766,6.98638 -13.174302,8.98248 -4.676639,1.99611 -9.6669,2.99416 -14.970798,2.99416 -9.353212,0 -16.7245402,-2.5379 -22.1140078,-7.61372 -5.3894962,-5.0758 -8.0842372,-11.49185 -8.0842309,-19.24817 -6.3e-6,-5.13281 1.2261721,-9.70959 3.6785389,-13.73036 2.45234694,-4.02068 5.8884981,-7.10039 10.3084638,-9.23912 4.419925,-2.13863 10.793201,-4.00642 19.119848,-5.60335 11.235177,-2.11012 19.019984,-4.07771 23.354445,-5.90278 l 0,-2.39532 c -6.3e-5,-4.6195 -1.140694,-7.91307 -3.421897,-9.88073 -2.281321,-1.96752 -6.587204,-2.95131 -12.91766,-2.95139 -4.277413,8e-5 -7.613759,0.84129 -10.009048,2.52365 -2.395361,1.68251 -4.334434,4.63389 -5.817224,8.85416 z m 32.165829,19.50481 c -3.079767,1.02661 -7.955965,2.25279 -14.628609,3.67854 -6.67274,1.42583 -11.035654,2.8231 -13.088754,4.19182 -3.136771,2.22427 -4.705139,5.04733 -4.705108,8.4692 -3.1e-5,3.36489 1.254663,6.2735 3.764086,8.72584 2.509354,2.45237 5.703121,3.67855 9.581311,3.67853 4.334354,2e-5 8.469142,-1.42577 12.404375,-4.27737 2.908553,-2.16718 4.819111,-4.81914 5.731677,-7.95591 0.627285,-2.05311 0.940959,-5.95977 0.941022,-11.71999 z"
         style="font-size:175.20111084px;font-weight:bold;fill:#666666;font-family:Arial;-inkscape-font-specification:Arial Bold"
         id="path5308" />
      <path
         d="m 139.96128,859.80343 0,19.16262 -16.42511,0 0,36.61429 c -4e-5,7.41414 0.1568,11.73428 0.47051,12.96044 0.31364,1.2262 1.02653,2.23851 2.13869,3.03693 1.11207,0.79846 2.46657,1.19768 4.0635,1.19766 2.22419,2e-5 5.44647,-0.7699 9.66686,-2.30978 l 2.05314,18.64934 c -5.58915,2.39533 -11.91966,3.59299 -18.99153,3.59299 -4.33444,0 -8.2411,-0.72715 -11.72,-2.18146 -3.47895,-1.4543 -6.03111,-3.33634 -7.65649,-5.64613 -1.62542,-2.30977 -2.75179,-5.43225 -3.37912,-9.36744 -0.513302,-2.79453 -0.769944,-8.44065 -0.769931,-16.93839 l 0,-39.60845 -11.035616,0 0,-19.16262 11.035616,0 0,-18.05051 24.124371,-14.02977 0,32.08028 z"
         style="font-size:175.20111084px;font-weight:bold;fill:#666666;font-family:Arial;-inkscape-font-specification:Arial Bold"
         id="path5310" />
      <path
         d="m 151.25357,903.9459 c -1e-5,-7.98438 1.96758,-15.71215 5.90277,-23.18335 3.93516,-7.47107 9.51,-13.17422 16.72452,-17.10949 7.21446,-3.93509 15.27017,-5.90268 24.16714,-5.90277 13.74455,9e-5 25.00829,4.46281 33.79123,13.38817 8.78278,8.92552 13.1742,20.20351 13.17431,33.834 -1.1e-4,13.74465 -4.43431,25.13671 -13.30263,34.1762 -8.86849,9.03951 -20.03242,13.55926 -33.49181,13.55926 -8.32666,0 -16.26831,-1.88204 -23.82496,-5.64613 -7.55671,-3.76408 -13.30264,-9.28188 -17.2378,-16.55342 -3.93519,-7.2715 -5.90278,-16.12565 -5.90277,-26.56247 z m 24.63765,1.28321 c -3e-5,9.01103 2.13865,15.91185 6.41606,20.70247 4.27733,4.79068 9.55275,7.186 15.82627,7.18598 6.27342,2e-5 11.53458,-2.3953 15.7835,-7.18598 4.24878,-4.79062 6.37321,-11.74847 6.37328,-20.87357 -7e-5,-8.89688 -2.1245,-15.74066 -6.37328,-20.53138 -4.24892,-4.79058 -9.51008,-7.18591 -15.7835,-7.18598 -6.27352,7e-5 -11.54894,2.3954 -15.82627,7.18598 -4.27741,4.79072 -6.41609,11.69154 -6.41606,20.70248 z"
         style="font-size:175.20111084px;font-weight:bold;fill:#666666;font-family:Arial;-inkscape-font-specification:Arial Bold"
         id="path5312" />
      <path
         d="m 286.93175,950.65479 -24.03882,0 0,-90.85136 22.32787,0 0,12.91766 c 3.82108,-6.1023 7.25723,-10.12303 10.30847,-12.06219 3.05114,-1.93898 6.51581,-2.90852 10.39401,-2.90861 5.47497,9e-5 10.75039,1.51143 15.82627,4.53401 l -7.44263,20.95912 c -4.0493,-2.62338 -7.81338,-3.93511 -11.29226,-3.93518 -3.36491,7e-5 -6.21649,0.92683 -8.55474,2.78029 -2.33833,1.85359 -4.1776,5.2042 -5.51781,10.05182 -1.34027,4.84774 -2.0104,14.99936 -2.01036,30.45488 z"
         style="font-size:175.20111084px;font-weight:bold;fill:#666666;font-family:Arial;-inkscape-font-specification:Arial Bold"
         id="path5314" />
      <path
         d="m 323.54606,924.73392 24.12438,-3.67854 c 1.02654,4.67662 3.10819,8.22683 6.24496,10.65065 3.1367,2.42386 7.52813,3.63578 13.1743,3.63577 6.21639,10e-6 10.89298,-1.14062 14.02978,-3.4219 2.1101,-1.59686 3.16519,-3.73555 3.16525,-6.41606 -6e-5,-1.82498 -0.57038,-3.33632 -1.71095,-4.53401 -1.19772,-1.1406 -3.87821,-2.19568 -8.04145,-3.16525 -19.39079,-4.27734 -31.68109,-8.184 -36.87094,-11.72 -7.186,-4.90467 -10.77898,-11.71994 -10.77898,-20.44583 0,-7.87029 3.10822,-14.48595 9.32467,-19.847 6.21643,-5.36088 15.85476,-8.04137 28.91503,-8.04146 12.43283,9e-5 21.67194,2.02471 27.71736,6.07387 6.04527,4.04932 10.20858,10.03764 12.48993,17.96495 l -22.67007,4.19183 c -0.9696,-3.53589 -2.80887,-6.24489 -5.51781,-8.12701 -2.70905,-1.88197 -6.57294,-2.82299 -11.59167,-2.82306 -6.33055,7e-5 -10.86456,0.88406 -13.60204,2.65197 -1.82504,1.25477 -2.73755,2.88016 -2.73752,4.8762 -3e-5,1.71102 0.79841,3.16532 2.39533,4.36292 2.16716,1.59695 9.65256,3.84969 22.45619,6.75825 12.80353,2.90866 21.74323,6.47313 26.81912,10.69342 5.0187,4.27742 7.52808,10.23721 7.52817,17.87941 -9e-5,8.32664 -3.47901,15.4841 -10.43678,21.4724 -6.95793,5.98832 -17.25213,8.98248 -30.88262,8.98248 -12.37589,0 -22.17106,-2.50939 -29.38554,-7.52817 -7.21451,-5.01877 -11.93387,-11.83404 -14.1581,-20.44583 z"
         style="font-size:175.20111084px;font-weight:bold;fill:#666666;font-family:Arial;-inkscape-font-specification:Arial Bold"
         id="path5316" />
    </g>
  </g>
</svg>
